<svg width="50" height="50" viewBox="0 0 50 50" fill="none" xmlns="http://www.w3.org/2000/svg">
<path d="M33.3795 16.3198C33.5711 16.1289 33.723 15.9021 33.8268 15.6523C33.9304 15.4026 33.9838 15.1348 33.9838 14.8644C33.9838 14.594 33.9304 14.3262 33.8268 14.0765C33.723 13.8267 33.5711 13.5999 33.3795 13.4091L30.4108 10.4422L30.4162 10.4476C29.6325 9.66204 28.2821 8.31165 26.3742 6.40919C25.9383 5.98674 25.3542 5.75219 24.7473 5.7559C24.1404 5.75962 23.5591 6.00134 23.1285 6.42909L6.4208 23.1242C6.20726 23.3365 6.03776 23.5889 5.92211 23.8669C5.80647 24.145 5.74695 24.4431 5.74695 24.7442C5.74695 25.0453 5.80647 25.3436 5.92211 25.6216C6.03776 25.8996 6.20726 26.152 6.4208 26.3643L23.1231 43.054C23.5538 43.4839 24.1374 43.7252 24.746 43.7252C25.3544 43.7252 25.9381 43.4839 26.3688 43.054L33.3741 36.0559C33.6632 35.7685 33.8602 35.4016 33.9402 35.002C34.0203 34.6023 33.9795 34.1878 33.8233 33.8114C33.6671 33.4347 33.4023 33.1132 33.0628 32.8876C32.7233 32.6621 32.3245 32.5424 31.9168 32.5441C31.3703 32.5441 30.8452 32.7596 30.4597 33.1452L25.1558 38.4562C25.1048 38.5085 25.0438 38.5502 24.9762 38.5787C24.9089 38.6071 24.8363 38.6219 24.7631 38.6219C24.6899 38.6219 24.6174 38.6071 24.55 38.5787C24.4825 38.5502 24.4214 38.5085 24.3703 38.4562L11.0295 25.1261C10.9773 25.0751 10.9359 25.0142 10.9076 24.9469C10.8793 24.8796 10.8647 24.8072 10.8647 24.7343C10.8647 24.6613 10.8793 24.589 10.9076 24.5217C10.9359 24.4544 10.9773 24.3935 11.0295 24.3424L24.3667 11.0106C24.3848 10.9943 24.4047 10.9816 24.421 10.9653C24.5265 10.8802 24.6601 10.8377 24.7955 10.8461C24.9308 10.8544 25.0581 10.9131 25.1524 11.0106L30.4634 16.3198C30.6545 16.5115 30.8815 16.6635 31.1315 16.7673C31.3818 16.871 31.6498 16.9244 31.9205 16.9244C32.1911 16.9244 32.4592 16.871 32.7092 16.7673C32.9594 16.6635 33.1864 16.5115 33.3776 16.3198H33.3795ZM20.3228 24.8294C20.3223 25.4217 20.4387 26.0082 20.6653 26.5556C20.8918 27.1028 21.2241 27.6 21.6432 28.0188C22.0622 28.4374 22.5597 28.7693 23.1072 28.9954C23.6547 29.2216 24.2414 29.3376 24.8337 29.3367C26.0291 29.336 27.1755 28.8612 28.021 28.016C28.8664 27.171 29.3419 26.0247 29.3427 24.8294C29.343 24.2373 29.2265 23.651 29 23.104C28.7734 22.5571 28.4413 22.0601 28.0225 21.6417C27.6037 21.2232 27.1065 20.8914 26.5593 20.6653C26.0121 20.4391 25.4259 20.3231 24.8337 20.3238C23.6384 20.3243 22.4922 20.799 21.6465 21.6437C20.8008 22.4883 20.3247 23.634 20.3228 24.8294ZM43.0729 23.1911L37.8597 18.0032C37.4674 17.6454 36.9526 17.4524 36.4217 17.4644C35.891 17.4765 35.3853 17.6926 35.0098 18.0679C34.6344 18.4431 34.4178 18.9487 34.4055 19.4794C34.3931 20.0101 34.5857 20.5252 34.9435 20.9176L38.4642 24.4347C38.5165 24.4858 38.5582 24.5469 38.5867 24.6143C38.6152 24.6818 38.6299 24.7542 38.6299 24.8274C38.6299 24.9006 38.6152 24.9732 38.5867 25.0407C38.5582 25.1081 38.5165 25.1691 38.4642 25.2204L34.9941 28.6868C34.7041 28.9737 34.5062 29.3408 34.4257 29.7407C34.3451 30.1408 34.3857 30.5557 34.5421 30.9326C34.6985 31.3095 34.9635 31.6312 35.3037 31.8566C35.6438 32.0821 36.0433 32.2011 36.4512 32.1985C36.998 32.1985 37.521 31.9813 37.9085 31.5958L43.0764 26.4331C43.2893 26.2202 43.4583 25.9676 43.5732 25.6896C43.6883 25.4113 43.7474 25.1133 43.7469 24.8122C43.7467 24.5113 43.687 24.2133 43.5712 23.9354C43.4557 23.6576 43.2862 23.4052 43.0729 23.1929V23.1911Z" fill="white"/>
</svg>
