<svg width="50" height="50" viewBox="0 0 50 50" fill="none" xmlns="http://www.w3.org/2000/svg">
<path d="M18.5417 10.2557C18.6314 10.6015 18.7004 10.9426 18.8112 11.2695C18.896 11.5197 18.8395 11.631 18.5931 11.7384C17.2294 12.3327 15.9285 13.0425 14.7526 13.961C13.9445 14.5922 13.1985 15.2868 12.6878 16.194C11.8023 17.7674 12.222 19.2347 13.8077 20.1065C14.9029 20.7085 16.0921 20.9817 17.3245 21.1112C17.6014 21.1403 17.6691 21.0503 17.7034 20.784C18.0705 17.9309 18.7247 15.1565 20.0405 12.5735C20.6655 11.3467 21.4226 10.2123 22.4898 9.31953C23.3276 8.61869 24.269 8.14618 25.3929 8.14982C26.6367 8.1539 27.6401 8.72188 28.5257 9.53321C29.6213 10.5367 30.3676 11.7855 31.0309 13.1709C30.5615 13.2959 30.1138 13.4211 29.6616 13.5279C29.6077 13.5406 29.5244 13.4594 29.4641 13.4103C28.502 12.6263 27.5436 12.7004 26.7111 13.6323C26.0986 14.3178 25.7134 15.1332 25.3952 15.9845C24.8569 17.4247 24.5648 18.9223 24.3597 20.4399C24.3508 20.5054 24.3585 20.5733 24.3585 20.6958C24.8875 20.5757 25.3837 20.4786 25.8716 20.3495C28.3463 19.6947 30.7261 18.806 32.8961 17.4224C34.1559 16.6191 35.32 15.7071 36.0905 14.3862C36.9249 12.956 36.6204 11.5237 35.2104 10.6612C34.5881 10.2804 33.8641 10.0608 33.1748 9.79733C32.9732 9.72021 32.8339 9.65682 32.7833 9.42552C32.6722 8.91794 32.5339 8.41638 32.387 7.83398C33.0446 7.89476 33.652 7.93469 34.2552 8.00956C35.9756 8.22324 37.6483 8.61742 39.2156 9.38571C40.3045 9.91955 41.2694 10.6168 41.9433 11.6409C42.8896 13.079 42.8881 14.6065 42.2439 16.1537C41.5054 17.9271 40.2097 19.2599 38.7533 20.454C36.3586 22.4178 33.628 23.7728 30.7396 24.8333C28.6808 25.5891 26.5672 26.1458 24.4047 26.512C24.164 26.5528 24.0662 26.6493 24.0834 26.8987C24.2567 29.4102 24.4904 31.9127 25.3967 34.2906C25.6052 34.8378 25.9171 35.3468 26.198 35.8644C26.2789 36.0137 26.4065 36.1431 26.531 36.2625C27.1516 36.8582 27.8716 36.8414 28.4555 36.2069C29.1234 35.481 29.5094 34.5927 29.7558 33.6617C30.0571 32.5232 30.2637 31.3597 30.5234 30.2096C30.5499 30.0924 30.6395 29.9247 30.7334 29.8982C31.4777 29.687 32.2301 29.5039 32.9807 29.3147C33.0094 29.3074 33.0448 29.3263 33.0943 29.3367C32.9065 31.0109 32.5881 32.6518 32.1075 34.2613C31.6687 35.7306 31.1207 37.1544 30.3329 38.4754C29.7361 39.4759 29.0461 40.4003 28.1215 41.1331C26.4101 42.4892 24.4491 42.5164 22.7215 41.1838C21.5687 40.2946 20.7606 39.1282 20.0961 37.8532C18.9766 35.7056 18.3161 33.4064 17.9305 31.0299C17.7305 29.7976 17.6261 28.5491 17.5066 27.3051C17.4777 27.005 17.3291 26.9856 17.1015 26.9728C15.1359 26.8622 13.2101 26.5426 11.3751 25.8028C10.1032 25.2899 8.9332 24.6061 8.08784 23.4915C6.93157 21.9671 6.87614 20.3147 7.61728 18.6029C8.29624 17.0346 9.41459 15.8016 10.6913 14.7055C12.9868 12.7344 15.6265 11.354 18.4267 10.2567C18.4464 10.2489 18.4716 10.2557 18.5417 10.2557Z" fill="white"/>
</svg>
