<svg width="50" height="50" viewBox="0 0 50 50" fill="none" xmlns="http://www.w3.org/2000/svg">
<path d="M17.8426 9.50006C19.4165 8.73067 20.96 8.83229 22.3192 9.92194C23.2564 10.6718 24.0528 11.598 24.9119 12.4493C24.9431 12.4844 24.9667 12.5236 24.9901 12.5626C25.279 12.2697 25.5448 12 25.8104 11.7266C26.3298 11.1955 26.8261 10.6289 27.3768 10.1251C28.0953 9.46517 28.9582 9.10554 29.9461 9.03913C31.5669 8.92978 32.7813 9.71907 33.8866 10.7774C34.4294 11.2968 34.8202 11.926 35.1209 12.5977C35.7183 13.9294 35.6129 15.2611 34.8006 16.4678C34.3945 17.0731 33.8522 17.5891 33.3407 18.1163C31.4115 20.108 29.4779 22.0953 27.5448 24.0831C27.4082 24.2197 27.2751 24.3645 27.1385 24.5128C27.1971 24.5752 27.2323 24.6221 27.2713 24.6651L32.3641 29.8751C33.0436 30.5702 33.7617 31.2346 34.3866 31.9727C35.5153 33.2811 35.8395 35.0814 34.9881 36.6866C34.4414 37.7371 33.6256 38.6242 32.6219 39.2569C31.6924 39.8427 30.6842 40.1553 29.5672 39.9561C28.4738 39.7608 27.607 39.1941 26.8494 38.3858C26.2558 37.7492 25.5798 37.1865 24.9354 36.585C24.5253 36.9873 24.033 37.4484 23.5604 37.9327C23.0528 38.452 22.5923 39.0304 21.9481 39.3897C20.7998 40.0302 19.5963 40.2412 18.3309 39.7413C16.7765 39.1281 15.6598 38.0301 14.9217 36.5577C14.3672 35.4486 14.3555 34.3045 14.8475 33.1446C15.2068 32.301 15.8632 31.707 16.4764 31.0782L22.3739 25.044C22.5299 24.884 22.6816 24.7157 22.8534 24.5323C22.7168 24.3645 22.5993 24.2118 22.4627 24.0714C20.3618 21.9001 18.257 19.7406 16.1405 17.5889C15.7187 17.1594 15.2928 16.745 15.0076 16.2061C14.2617 14.7846 14.3477 13.3865 15.1561 12.0313C15.8083 10.9378 16.6906 10.0625 17.8426 9.50006ZM24.9119 27.3096C24.8026 27.458 24.7049 27.6222 24.5799 27.7589C24.1582 28.2118 23.7282 28.6535 23.2948 29.0987C21.6663 30.7779 20.0453 32.4614 18.3934 34.1212C17.8314 34.6874 17.8 35.5892 18.3231 36.1905C18.9362 36.8935 19.9326 37.0341 20.6082 36.2842C20.9363 35.9172 21.2919 35.5888 21.6395 35.2335C21.9829 34.8744 22.3224 34.5114 22.6737 34.1407L21.0028 32.3907L23.3338 30.1563L25.0565 31.7501L26.5838 30.1368L28.9774 32.4063L28.1532 33.2852L27.2635 34.2344C28.0014 34.9411 28.7277 35.6166 29.4305 36.3155C29.9812 36.8662 30.6572 36.9131 31.2742 36.5421C32.0785 36.0617 32.3089 34.8867 31.7274 34.2501C31.497 34.008 31.2624 33.7695 31.0282 33.5313C29.4426 31.895 27.8491 30.2624 26.2557 28.6299C25.8456 28.2082 25.4196 27.8056 24.9119 27.3096ZM9.3055 19.0723C11.1332 18.8263 12.6837 19.3929 14.0076 20.6114C14.5114 21.0722 14.9257 21.6271 15.3826 22.1387C15.4177 22.1738 15.4532 22.2053 15.5155 22.2637L17.5653 20.1192L19.9364 22.4151L17.8739 24.5596L19.9793 26.5206L17.5223 28.8516L15.4647 26.6964C15.4334 26.7744 15.3943 26.8488 15.3553 26.919C14.8906 27.6336 14.2809 28.219 13.6131 28.7462C12.9024 29.3202 12.102 29.7656 11.2 29.9141C8.65373 30.3359 6.36888 29.3636 5.40413 26.6924C4.70894 24.7592 4.92385 22.9314 5.9471 21.2051C6.69306 19.9515 7.84482 19.2676 9.3055 19.0723ZM40.0535 19.0176C42.3186 19.0801 43.9588 20.326 44.658 22.5479C44.9392 23.4384 45.0838 24.3411 44.9471 25.2667C44.7362 26.6491 44.2406 27.9026 43.1668 28.8555C42.292 29.6327 41.2408 29.9649 40.0848 29.9962C38.8351 30.0313 37.7066 29.7069 36.6912 28.961C35.8828 28.3713 35.1794 27.6922 34.6053 26.8682C34.5858 26.8448 34.5662 26.8214 34.5428 26.8018L32.3875 28.8321L30.0164 26.5635L32.1336 24.5831L30.0633 22.4346L32.3992 20.1973L34.492 22.1505C35.0505 21.592 35.6093 20.9746 36.2225 20.42C37.3043 19.4398 38.593 18.9787 40.0535 19.0176ZM10.9735 22.5362C10.169 22.1847 9.09846 22.392 8.61019 23.0362C8.16887 23.6181 8.13364 24.2785 8.20784 24.9698C8.31329 25.9657 9.0674 26.6573 10.075 26.6768C10.321 26.6261 10.579 26.5987 10.8172 26.5167C11.8364 26.1768 12.5352 25.4071 13.2264 24.6417C13.2772 24.587 13.2537 24.3995 13.1951 24.3292C12.5469 23.6224 11.8833 22.9345 10.9735 22.5362ZM40.5575 22.4581C39.7845 22.2161 39.0659 22.4155 38.4373 22.8565C37.9453 23.2041 37.4958 23.6223 37.0623 24.044C36.5663 24.5283 36.5546 24.4504 37.0545 24.9776C37.6871 25.6414 38.3508 26.2745 39.2567 26.5479C40.0143 26.7744 40.9872 26.6727 41.5028 25.7979C41.7371 25.4191 41.8465 24.9775 41.8192 24.5284C41.8699 23.4271 41.2487 22.6729 40.5575 22.4581ZM31.2469 12.4883C30.6103 12.0822 30.0359 12.1291 29.493 12.6602C28.9893 13.1522 28.5045 13.6712 28.0125 14.1788L27.3299 14.8819L28.9852 16.6163L26.6151 18.9083L25.0565 17.2647L23.369 18.8223L20.9715 16.5499L22.7166 14.9483C22.5918 14.8079 22.5174 14.7334 22.4432 14.6553C21.8731 14.0618 21.276 13.4911 20.7332 12.8702C20.1162 12.1673 19.3541 12.0002 18.534 12.6212C17.8704 13.125 17.7336 14.1985 18.3035 14.8038C18.6004 15.1162 18.9091 15.4249 19.2098 15.7335C20.7642 17.3347 22.3185 18.932 23.8768 20.5255C24.2439 20.9004 24.6112 21.2833 24.9823 21.67C25.1033 21.5567 25.1776 21.4942 25.244 21.4239C27.4116 19.2134 29.5676 16.9948 31.7235 14.7725C31.8484 14.6359 31.9344 14.4677 31.9774 14.2882C32.1764 13.4956 31.934 12.9296 31.2469 12.4883Z" fill="white"/>
</svg>
