<svg width="50" height="50" viewBox="0 0 50 50" fill="none" xmlns="http://www.w3.org/2000/svg">
<path d="M8 25.913C9.67123 28.4081 11.5125 30.7855 13.5132 33.0216C14.9177 34.5019 16.4163 35.8828 18.0012 37.167C21.7831 40.2034 25.6695 39.955 28.9597 37.3814C29.2395 37.1617 29.5534 36.9107 29.8855 36.6308L30.9552 35.7181L32.1322 34.6719L33.398 33.5159L35.3857 31.6459L37.4048 29.6975C37.44 29.6435 37.4868 29.598 37.5418 29.5644C37.5968 29.5308 37.6586 29.5098 37.7228 29.5031C37.7869 29.4963 37.8517 29.5039 37.9125 29.5253C37.9733 29.5467 38.0286 29.5814 38.0743 29.6269C38.7726 30.3069 39.4343 31.0208 40.0568 31.7715L39.8685 31.9728L39.042 32.8098L37.8834 33.9213L36.4894 35.2133L35.4746 36.1287L33.8923 37.5253L32.3257 38.8591L31.8209 39.2776C27.652 42.7037 23.232 42.348 20.9331 41.1685L20.2086 40.771L19.6698 40.4519C19.5734 40.3925 19.4775 40.3324 19.3822 40.2714L18.7649 39.8713L18.1006 39.39L17.3762 38.833C17.1146 38.6185 16.8531 38.3988 16.5994 38.1765L15.7598 37.4128C14.542 36.2536 13.3903 35.0268 12.3102 33.7382C10.8084 31.961 9.49371 30.0338 8.38708 27.987C8.29112 27.8055 8.21987 27.612 8.17523 27.4116C8.07266 26.9174 8.01402 26.415 8 25.9104V25.913ZM8.27985 22.3744L8.86308 23.1957L9.59538 24.1581L10.21 24.9375L10.9109 25.798L11.6955 26.7212L12.5534 27.6889C12.6998 27.8562 12.8489 28.021 13.0058 28.1858L13.9578 29.1901C14.12 29.3601 14.2874 29.5301 14.4548 29.6949L15.4826 30.6939C16.3535 31.5152 17.2715 32.3076 18.2105 33.0216C20.1014 34.4313 22.1754 34.3921 23.9695 33.0556L24.5946 32.5456L26.6974 30.6887L29.2631 28.3453L30.984 26.7212L31.7634 25.9627L32.4538 25.2696C32.516 25.1826 32.5956 25.1093 32.6875 25.0546C32.7794 24.9998 32.8816 24.9647 32.9878 24.9514C33.094 24.9381 33.2017 24.947 33.3043 24.9775C33.4069 25.0079 33.502 25.0593 33.5837 25.1284C34.3709 25.7901 35.1137 26.5067 35.812 27.2704L35.6028 27.5058L34.996 28.1335L34.1905 28.9364L32.718 30.3618L30.5237 32.4175L28.9388 33.8664L28.0025 34.6954L27.2231 35.3598C26.9982 35.5481 26.8046 35.6997 26.6582 35.8096C24.184 37.6325 21.7098 37.2376 19.5888 36.0633C19.3265 35.9146 19.0716 35.7531 18.8251 35.5794L18.1974 35.1218L17.4886 34.5568C17.2226 34.3397 16.9602 34.1182 16.7014 33.8925L15.8488 33.1184L14.9386 32.2448L13.9788 31.2719C11.8809 29.0699 9.96291 26.7033 8.24323 24.1947C8.09424 23.9486 8.04379 23.6553 8.102 23.3735L8.27985 22.3744ZM29.7077 18.9065C30.5603 18.9065 31.4103 19.2621 32.2969 19.9709C33.5366 20.9647 38.0325 25.0395 41.0454 29.0096C41.1474 29.2136 41.1343 29.4542 41.0114 29.6478C40.8649 30.0009 40.6191 30.5344 40.6191 30.5344C40.6191 30.4978 39.5206 29.1509 38.1397 27.6653C36.7056 26.1561 35.2046 24.7118 33.6412 23.3369C33.1812 22.8833 32.5829 22.5961 31.9412 22.5209C31.359 22.5284 30.8016 22.7576 30.3825 23.1617C30.2752 23.2663 30.0294 23.4781 29.6763 23.7998C28.1149 25.254 24.7489 28.3349 22.9757 29.8256C22.7272 30.0375 22.5154 30.2179 22.3742 30.3592C21.7176 30.9701 20.8618 31.3223 19.9654 31.3504C19.0006 31.3268 18.0785 30.9477 17.3762 30.2859C12.7731 26.2818 9.40708 22.275 8.66692 21.2106C8.61979 21.1244 8.59188 21.0291 8.5851 20.9311C8.57833 20.8332 8.59286 20.7349 8.62769 20.6431C8.76892 20.256 9.02 19.7591 9.02 19.7591C9.02 19.7591 10.1525 21.106 11.502 22.6281C12.8906 24.1812 14.3943 25.6272 16.0005 26.9539C16.4503 27.4221 17.0545 27.7124 17.7005 27.7699C18.2823 27.7631 18.8397 27.5349 19.2592 27.1318C19.3377 27.0533 21.1057 25.4266 22.9574 23.7527L23.7525 23.0335C24.9372 21.9664 26.0618 20.9674 26.7 20.4312C26.9458 20.2194 27.1577 20.0389 27.3015 19.8977C27.9606 19.2857 28.8158 18.9352 29.7077 18.9038V18.9065ZM23.3392 14.1936C25.8134 12.3706 28.2849 12.7629 30.4086 13.8719C30.6963 14.0288 31.0546 14.2642 31.4731 14.5676L32.1426 15.0775L32.5088 15.3731L33.2934 16.0426L34.1486 16.8115L35.0588 17.6851L36.0186 18.658C38.114 20.8608 40.0302 23.2274 41.7489 25.7352C41.8988 25.981 41.9502 26.2743 41.8928 26.5564L41.7149 27.5555L41.1291 26.7499L40.3942 25.7901L39.4343 24.6001L38.6863 23.7109L37.8625 22.7615L36.968 21.7755L36.0134 20.7738C34.6862 19.3967 33.2615 18.1171 31.7503 16.9449C29.8934 15.5379 27.822 15.5745 26.0278 16.9109L25.5597 17.2849L23.6845 18.9326L21.6183 20.8052L20.7317 21.6238L19.0134 23.2454L18.234 24.0038L17.5409 24.6969C17.4787 24.7843 17.3991 24.8579 17.3069 24.913C17.2148 24.968 17.1122 25.0033 17.0058 25.0165C16.8993 25.0298 16.7912 25.0208 16.6884 24.9901C16.5855 24.9594 16.4902 24.9076 16.4085 24.8381C15.6185 24.1889 14.8756 23.4845 14.1854 22.7301L14.6666 22.207L15.3806 21.4852L16.2672 20.6143L18.3622 18.6135L20.0177 17.0809L21.0612 16.1342L22.4055 14.952L22.7717 14.6382L23.3392 14.1936ZM18.1765 10.723C22.348 7.29682 26.768 7.65251 29.0643 8.82943L29.7914 9.22958L30.3275 9.55127C30.4243 9.60619 30.5211 9.66373 30.6152 9.72912L31.2325 10.1319L31.8994 10.6105L32.6212 11.1676C32.8697 11.3716 33.1312 11.5913 33.4006 11.8266L34.2375 12.5877C34.5278 12.8597 34.8286 13.1553 35.1398 13.4665L36.1075 14.4812C36.6071 15.02 37.1354 15.6137 37.6872 16.2649C39.1899 18.0424 40.5046 19.9706 41.6103 22.0187C41.7065 22.1976 41.7786 22.3885 41.8248 22.5863C41.9294 23.0832 41.9869 23.5827 42 24.0875C40.3302 21.5915 38.488 19.2153 36.4868 16.9763C35.0825 15.5 33.5833 14.117 31.9988 12.8362C28.2143 9.79712 24.3278 10.0456 21.0403 12.6191C20.7578 12.8388 20.4466 13.0899 20.1118 13.3697L19.0422 14.2825L17.8652 15.3286L16.602 16.4872L14.6143 18.3572L12.5952 20.3031C12.56 20.3575 12.5131 20.4033 12.4579 20.4373C12.4026 20.4712 12.3405 20.4923 12.276 20.4991C12.2116 20.5058 12.1464 20.4981 12.0853 20.4764C12.0243 20.4547 11.9688 20.4196 11.9231 20.3737C11.2248 19.6937 10.5631 18.9771 9.94323 18.2291L10.1289 18.0277L10.958 17.1908L12.1166 16.0819L13.0215 15.2345L14.5254 13.8719L15.5742 12.9382L16.636 12.0228L17.6717 11.1414L18.1765 10.7256V10.723Z" fill="white"/>
</svg>
